<?xml version="1.0" standalone="no"?>
<!DOCTYPE svg PUBLIC "-//W3C//DTD SVG 20010904//EN"
 "http://www.w3.org/TR/2001/REC-SVG-20010904/DTD/svg10.dtd">
<svg version="1.0" xmlns="http://www.w3.org/2000/svg"
 width="256.000000pt" height="256.000000pt" viewBox="0 0 256.000000 256.000000"
 preserveAspectRatio="xMidYMid meet">

<g transform="translate(0.000000,256.000000) scale(0.100000,-0.100000)"
fill="#000000" stroke="none">
<path d="M1209 2367 c-65 -44 -64 -36 -64 -514 0 -238 -2 -433 -5 -432 -3 0
-41 42 -84 93 -105 121 -119 131 -184 130 -47 0 -57 -4 -89 -36 -29 -29 -37
-45 -41 -86 -2 -31 1 -59 9 -75 8 -14 91 -112 184 -218 94 -106 190 -216 215
-245 71 -82 131 -103 197 -67 32 17 426 457 464 518 39 62 14 154 -53 195 -75
46 -125 23 -240 -107 l-93 -106 -5 444 c-4 341 -8 449 -18 467 -35 61 -132 80
-193 39z"/>
<path d="M202 1133 c-33 -7 -88 -65 -95 -101 -3 -17 -6 -193 -7 -391 0 -397 1
-405 59 -454 l33 -27 1093 0 1094 0 35 31 c20 17 40 47 46 67 6 22 10 183 10
396 0 342 -1 362 -20 402 -27 55 -63 78 -121 78 -54 0 -91 -21 -119 -67 -19
-30 -20 -52 -20 -329 l0 -298 -905 0 -905 0 0 293 c0 258 -2 296 -18 326 -29
58 -93 88 -160 74z"/>
</g>
</svg>
